HIERARCHY
ROOT Hips
{
	OFFSET 0.00000 0.00000 0.00000
	CHANNELS 6 Xposition Yposition Zposition Zrotation Yrotation Xrotation 
	JOINT LHipJoint
	{
		OFFSET 0 0 0
		CHANNELS 3 Zrotation Yrotation Xrotation
		JOINT LeftUpLeg
		{
			OFFSET 1.48831 -1.59570 0.95625
			CHANNELS 3 Zrotation Yrotation Xrotation
			JOINT LeftLeg
			{
				OFFSET 2.20856 -6.06797 0.00000
				CHANNELS 3 Zrotation Yrotation Xrotation
				JOINT LeftFoot
				{
					OFFSET 2.62924 -7.22379 0.00000
					CHANNELS 3 Zrotation Yrotation Xrotation
					JOINT LeftToeBase
					{
						OFFSET 0.16802 -0.46163 2.41673
						CHANNELS 3 Zrotation Yrotation Xrotation
						End Site
						{
							OFFSET 0.00000 -0.00000 1.23760
						}
					}
				}
			}
		}
	}
	JOINT RHipJoint
	{
		OFFSET 0 0 0
		CHANNELS 3 Zrotation Yrotation Xrotation
		JOINT RightUpLeg
		{
			OFFSET -1.56796 -1.59570 0.95625
			CHANNELS 3 Zrotation Yrotation Xrotation
			JOINT RightLeg
			{
				OFFSET -2.29239 -6.29829 0.00000
				CHANNELS 3 Zrotation Yrotation Xrotation
				JOINT RightFoot
				{
					OFFSET -2.66963 -7.33475 0.00000
					CHANNELS 3 Zrotation Yrotation Xrotation
					JOINT RightToeBase
					{
						OFFSET -0.18185 -0.49964 2.34359
						CHANNELS 3 Zrotation Yrotation Xrotation
						End Site
						{
							OFFSET -0.00000 -0.00000 1.20477
						}
					}
				}
			}
		}
	}
	JOINT LowerBack
	{
		OFFSET 0 0 0
		CHANNELS 3 Zrotation Yrotation Xrotation
		JOINT Spine
		{
			OFFSET 0.03505 2.15832 -0.34324
			CHANNELS 3 Zrotation Yrotation Xrotation
			JOINT Spine1
			{
				OFFSET -0.01089 2.17963 0.04689
				CHANNELS 3 Zrotation Yrotation Xrotation
				JOINT Neck
				{
					OFFSET 0 0 0
					CHANNELS 3 Zrotation Yrotation Xrotation
					JOINT Neck1
					{
						OFFSET 0.04686 1.69404 0.22159
						CHANNELS 3 Zrotation Yrotation Xrotation
						JOINT Head
						{
							OFFSET 0.00265 1.69305 -0.01513
							CHANNELS 3 Zrotation Yrotation Xrotation
							End Site
							{
								OFFSET -0.00415 1.80215 -0.03034
							}
						}
					}
				}
				JOINT LeftShoulder
				{
					OFFSET 0 0 0
					CHANNELS 3 Zrotation Yrotation Xrotation
					JOINT LeftArm
					{
						OFFSET 3.67184 1.11724 -0.19002
						CHANNELS 3 Zrotation Yrotation Xrotation
						JOINT LeftForeArm
						{
							OFFSET 5.17714 -0.00000 -0.00000
							CHANNELS 3 Zrotation Yrotation Xrotation
							JOINT LeftHand
							{
								OFFSET 3.43679 -0.00000 -0.00000
								CHANNELS 3 Zrotation Yrotation Xrotation
								JOINT LeftFingerBase
								{
									OFFSET 0 0 0
									CHANNELS 3 Zrotation Yrotation Xrotation
									JOINT LeftHandIndex1
									{
										OFFSET 0.57312 -0.00000 -0.00000
										CHANNELS 3 Zrotation Yrotation Xrotation
										End Site
										{
											OFFSET 0.46206 -0.00000 -0.00000
										}
									}
								}
								JOINT LThumb
								{
									OFFSET 0 0 0
									CHANNELS 3 Zrotation Yrotation Xrotation
									End Site
									{
										OFFSET 0.46912 -0.00000 0.46912
									}
								}
							}
						}
					}
				}
				JOINT RightShoulder
				{
					OFFSET 0 0 0
					CHANNELS 3 Zrotation Yrotation Xrotation
					JOINT RightArm
					{
						OFFSET -3.59596 0.95831 -0.26050
						CHANNELS 3 Zrotation Yrotation Xrotation
						JOINT RightForeArm
						{
							OFFSET -5.23908 -0.00000 -0.00000
							CHANNELS 3 Zrotation Yrotation Xrotation
							JOINT RightHand
							{
								OFFSET -3.46485 -0.00000 -0.00000
								CHANNELS 3 Zrotation Yrotation Xrotation
								JOINT RightFingerBase
								{
									OFFSET 0 0 0
									CHANNELS 3 Zrotation Yrotation Xrotation
									JOINT RightHandIndex1
									{
										OFFSET -0.60875 -0.00000 -0.00000
										CHANNELS 3 Zrotation Yrotation Xrotation
										End Site
										{
											OFFSET -0.49079 -0.00000 -0.00000
										}
									}
								}
								JOINT RThumb
								{
									OFFSET 0 0 0
									CHANNELS 3 Zrotation Yrotation Xrotation
									End Site
									{
										OFFSET -0.49829 -0.00000 0.49829
									}
								}
							}
						}
					}
				}
			}
		}
	}
}
MOTION
Frames: 13
Frame Time: .0083333
4.6878 16.0860 -14.8835 -354.0010 -28.7796 362.5120 0.0000 0.0000 0.0000 -25.8437 19.4131 -2.2884 1.7656 8.3597 23.8122 0.1455 -11.5636 -10.0624 0.5715 -4.8412 -13.4563 0.0000 0.0000 0.0000 4.5742 14.7268 -39.9256 -3.8066 -11.8985 35.3740 -1.4060 -8.7915 -27.1259 -0.3221 3.6482 -10.0889 3.1212 -2.7576 17.8599 2.5427 -3.0751 6.3819 1.5452 -1.5638 -3.1636 5.6199 0.9801 12.7284 -7.0423 1.5108 -8.5029 -3.2163 1.0053 -4.5229 0.0000 -0.0000 0.0000 -87.5598 14.0089 28.4634 146.9860 -43.3408 -106.5683 -0.0000 0.0000 -4.1099 -2.6770 35.2945 -1.5474 -7.1250 0.0000 -0.0000 -41.4169 60.2276 -17.0894 0.0000 -0.0000 0.0000 81.2872 -2.6759 37.9040 -140.5897 47.7166 -101.9983 0.0000 0.0000 17.1684 10.3247 -14.3468 -2.5847 7.1250 -0.0000 -0.0000 33.0585 -41.7690 3.0080
4.5987 16.1108 -14.7943 -353.9380 -28.8921 362.7200 0.0000 0.0000 0.0000 -25.6587 19.4840 -2.6971 1.8805 8.6126 24.5908 0.0839 -11.3729 -9.1539 0.6086 -4.9932 -13.8893 0.0000 0.0000 0.0000 4.7972 14.3892 -39.9291 -3.8433 -11.9490 35.5517 -1.3707 -8.8731 -26.9305 -0.2971 3.5047 -9.6873 3.2171 -2.7449 17.7946 2.5890 -3.0399 6.3091 1.5322 -1.5459 -3.2090 5.6357 0.9961 12.5986 -7.1440 1.5116 -8.6585 -3.2515 1.0099 -4.5483 0.0000 -0.0000 0.0000 -87.5159 13.9361 28.4590 146.9283 -43.3851 -106.5287 -0.0000 0.0000 -4.0102 -2.5651 35.2337 -1.4805 -7.1250 0.0000 -0.0000 -41.2430 60.2082 -16.9829 0.0000 -0.0000 0.0000 81.2665 -2.6388 37.9583 -140.5367 47.7487 -101.9590 0.0000 0.0000 17.2170 10.3817 -14.3565 -2.6009 7.1250 -0.0000 -0.0000 33.1077 -41.7710 3.0119
4.5082 16.1363 -14.7064 -353.8780 -28.9568 362.9310 0.0000 0.0000 0.0000 -25.4423 19.5867 -3.3031 2.0413 8.9516 25.6439 0.0193 -11.2036 -8.1427 0.6310 -5.0828 -14.1448 0.0000 0.0000 0.0000 5.0243 14.0325 -39.9121 -3.8723 -11.9886 35.6915 -1.3318 -8.9830 -26.7268 -0.2661 3.3184 -9.1665 3.3022 -2.7387 17.7297 2.6426 -3.0148 6.2411 1.5350 -1.5333 -3.2486 5.6439 1.0025 12.4734 -7.2328 1.5001 -8.8043 -3.2804 1.0080 -4.5725 -0.0000 0.0000 0.0000 -87.4860 13.8081 28.4626 146.8572 -43.4395 -106.4799 -0.0000 0.0000 -3.8792 -2.5688 35.1360 -1.4791 -7.1250 0.0000 -0.0000 -41.1369 60.1330 -16.8549 -0.0000 0.0000 0.0000 81.2342 -2.6210 37.9943 -140.5079 47.7661 -101.9377 0.0000 0.0000 17.2493 10.4084 -14.3580 -2.6080 7.1250 -0.0000 -0.0000 33.1292 -41.7693 3.0160
4.4163 16.1629 -14.6199 -353.8270 -28.9684 363.1440 0.0000 0.0000 0.0000 -25.1884 19.7078 -4.0930 2.2511 9.3706 26.9615 -0.0445 -11.0181 -7.0321 0.6406 -5.1206 -14.2527 0.0000 0.0000 0.0000 5.2595 13.6671 -39.8659 -3.8920 -12.0152 35.7859 -1.2878 -9.1063 -26.4945 -0.2330 3.1070 -8.5767 3.3850 -2.7410 17.6738 2.6999 -3.0003 6.1741 1.5454 -1.5259 -3.2913 5.6615 0.9982 12.3523 -7.3130 1.4775 -8.9297 -3.3072 0.9998 -4.5917 -0.0000 0.0000 0.0000 -87.4692 13.6302 28.4720 146.7737 -43.5033 -106.4224 -0.0000 0.0000 -3.7338 -2.6103 35.0470 -1.4997 -7.1250 0.0000 -0.0000 -41.0772 60.0554 -16.7479 -0.0000 0.0000 0.0000 81.2018 -2.6266 38.0098 -140.5002 47.7708 -101.9320 0.0000 0.0000 17.2597 10.3964 -14.3524 -2.6040 7.1250 -0.0000 -0.0000 33.1173 -41.7659 3.0179
4.3229 16.1906 -14.5350 -353.7930 -28.9238 363.3570 0.0000 0.0000 0.0000 -24.8845 19.8406 -5.0482 2.5130 9.8615 28.5293 -0.1043 -10.7900 -5.8223 0.6323 -5.0878 -14.1592 0.0000 0.0000 0.0000 5.5073 13.3130 -39.7800 -3.9029 -12.0301 35.8386 -1.2411 -9.2220 -26.2335 -0.1999 2.8787 -7.9411 3.4806 -2.7519 17.6380 2.7562 -2.9935 6.1042 1.5505 -1.5223 -3.3483 5.6992 0.9809 12.2374 -7.3820 1.4433 -9.0284 -3.3326 0.9844 -4.6044 0.0000 0.0000 0.0000 -87.4360 13.4234 28.5191 146.6957 -43.5627 -106.3686 -0.0000 0.0000 -3.6239 -2.6772 34.9545 -1.5346 -7.1250 0.0000 -0.0000 -41.0375 59.9689 -16.6420 0.0000 0.0000 0.0000 81.1794 -2.6657 37.9970 -140.5157 47.7614 -101.9435 0.0000 0.0000 17.2404 10.3440 -14.3430 -2.5889 7.1250 -0.0000 -0.0000 33.0719 -41.7636 3.0146
4.2283 16.2182 -14.4518 -353.7740 -28.8302 363.5600 0.0000 0.0000 0.0000 -24.5350 19.9678 -6.1364 2.8298 10.4142 30.3288 -0.1542 -10.4933 -4.5608 0.6052 -4.9798 -13.8510 0.0000 0.0000 0.0000 5.7668 12.9800 -39.6497 -3.9081 -12.0371 35.8632 -1.1920 -9.3156 -25.9344 -0.1701 2.6568 -7.3246 3.5805 -2.7743 17.6401 2.8114 -2.9983 6.0275 1.5565 -1.5245 -3.4327 5.7482 0.9590 12.1306 -7.4365 1.4083 -9.0940 -3.3549 0.9673 -4.6084 0.0000 0.0000 0.0000 -87.3635 13.2239 28.6079 146.6404 -43.6046 -106.3305 -0.0000 0.0000 -3.5520 -2.6658 34.8959 -1.5258 -7.1250 0.0000 -0.0000 -40.9620 59.9269 -16.5630 0.0000 0.0000 0.0000 81.1610 -2.7387 37.9755 -140.5500 47.7407 -101.9689 0.0000 0.0000 17.1940 10.2807 -14.3363 -2.5716 7.1250 -0.0000 -0.0000 33.0191 -41.7648 3.0074
4.1325 16.2449 -14.3704 -353.7690 -28.6963 363.7440 0.0000 0.0000 0.0000 -24.1400 20.0828 -7.3271 3.2035 11.0175 32.3388 -0.1906 -10.1306 -3.3041 0.5577 -4.7836 -13.2923 0.0000 0.0000 0.0000 6.0358 12.6787 -39.4737 -3.9111 -12.0412 35.8777 -1.1427 -9.3759 -25.6038 -0.1453 2.4561 -6.7680 3.6886 -2.8074 17.6862 2.8586 -3.0128 5.9472 1.5540 -1.5315 -3.5448 5.8100 0.9334 12.0308 -7.4716 1.3743 -9.1280 -3.3729 0.9490 -4.6039 -0.0000 -0.0000 0.0000 -87.2353 13.0487 28.7422 146.6251 -43.6162 -106.3200 -0.0000 0.0000 -3.5515 -2.6101 34.8427 -1.4919 -7.1250 0.0000 -0.0000 -40.8509 59.8994 -16.4812 -0.0000 -0.0000 0.0000 81.1560 -2.8358 37.9437 -140.5953 47.7132 -102.0024 0.0000 0.0000 17.1219 10.2306 -14.3335 -2.5583 7.1250 -0.0000 -0.0000 32.9784 -41.7679 2.9996
4.0361 16.2696 -14.2908 -353.7760 -28.5367 363.9040 0.0000 0.0000 0.0000 -23.7039 20.1790 -8.5899 3.6351 11.6583 34.5337 -0.2122 -9.7181 -2.1168 0.4918 -4.4964 -12.4777 0.0000 0.0000 0.0000 6.3107 12.4180 -39.2577 -3.9159 -12.0476 35.9005 -1.0940 -9.4119 -25.2535 -0.1255 2.2833 -6.2894 3.8044 -2.8514 17.7837 2.8950 -3.0370 5.8643 1.5408 -1.5434 -3.6876 5.8750 0.9098 11.9394 -7.4845 1.3475 -9.1344 -3.3847 0.9328 -4.5919 0.0000 0.0000 0.0000 -87.0634 12.8986 28.8935 146.6461 -43.6003 -106.3345 -0.0000 0.0000 -3.6123 -2.4733 34.8105 -1.4125 -7.1250 0.0000 -0.0000 -40.6863 59.9070 -16.4082 0.0000 0.0000 0.0000 81.1579 -2.9507 37.9186 -140.6482 47.6811 -102.0416 0.0000 0.0000 17.0291 10.1817 -14.3432 -2.5475 7.1250 -0.0000 -0.0000 32.9444 -41.7815 2.9829
3.9396 16.2918 -14.2133 -353.7970 -28.3720 364.0430 0.0000 0.0000 0.0000 -23.2336 20.2413 -9.8996 4.1239 12.3234 36.8859 -0.2187 -9.2593 -1.0780 0.4183 -4.1515 -11.5033 0.0000 0.0000 0.0000 6.5941 12.1976 -39.0195 -3.9252 -12.0602 35.9451 -1.0458 -9.4306 -24.8863 -0.1084 2.1226 -5.8445 3.9075 -2.8988 17.9232 2.9332 -3.0651 5.7894 1.5396 -1.5576 -3.8435 5.9262 0.8917 11.8533 -7.4795 1.3287 -9.1262 -3.3889 0.9199 -4.5761 0.0000 0.0000 0.0000 -86.8695 12.7680 29.0487 146.7090 -43.5525 -106.3778 -0.0000 0.0000 -3.7131 -2.2758 34.7860 -1.2988 -7.1250 0.0000 -0.0000 -40.4731 59.9349 -16.3316 0.0000 0.0000 0.0000 81.1418 -3.0589 37.9071 -140.7034 47.6476 -102.0823 0.0000 0.0000 16.9203 10.1416 -14.3638 -2.5408 7.1250 -0.0000 -0.0000 32.9222 -41.8036 2.9597
3.8435 16.3109 -14.1381 -353.8370 -28.2169 364.1670 0.0000 0.0000 0.0000 -22.7330 20.2636 -11.2425 4.6681 13.0000 39.3683 -0.2113 -8.7485 -0.2711 0.3501 -3.8017 -10.5194 0.0000 0.0000 0.0000 6.8892 12.0163 -38.7771 -3.9409 -12.0814 36.0204 -0.9958 -9.4585 -24.5062 -0.0928 1.9648 -5.4084 4.0034 -2.9425 18.0907 2.9716 -3.0884 5.7277 1.5429 -1.5696 -3.9997 5.9731 0.8745 11.7768 -7.4652 1.3119 -9.1155 -3.3898 0.9078 -4.5610 0.0000 0.0000 0.0000 -86.6711 12.6282 29.1886 146.7965 -43.4859 -106.4381 -0.0000 0.0000 -3.8426 -2.0811 34.7461 -1.1864 -7.1250 0.0000 -0.0000 -40.2451 59.9503 -16.2356 0.0000 0.0000 0.0000 81.1103 -3.1456 37.9016 -140.7551 47.6161 -102.1205 0.0000 0.0000 16.8007 10.1042 -14.3892 -2.5357 7.1250 -0.0000 -0.0000 32.9045 -41.8296 2.9333
3.7483 16.3268 -14.0649 -353.9070 -28.0806 364.2870 0.0000 0.0000 0.0000 -22.2012 20.2315 -12.5984 5.2648 13.6760 41.9547 -0.1959 -8.2365 0.2603 0.2874 -3.4479 -9.5283 0.0000 0.0000 0.0000 7.2078 11.8650 -38.5422 -3.9635 -12.1116 36.1280 -0.9436 -9.5051 -24.1154 -0.0770 1.7902 -4.9263 4.0976 -2.9803 18.2760 3.0181 -3.1034 5.6837 1.5546 -1.5777 -4.1457 5.9989 0.8602 11.7103 -7.4387 1.2971 -9.1102 -3.3837 0.8968 -4.5493 0.0000 -0.0000 0.0000 -86.5056 12.4537 29.2910 146.8942 -43.4112 -106.5053 -0.0000 0.0000 -3.9781 -1.8939 34.7053 -1.0786 -7.1250 0.0000 -0.0000 -40.0232 59.9632 -16.1404 0.0000 -0.0000 0.0000 81.0524 -3.1976 37.9023 -140.8035 47.5866 -102.1563 0.0000 0.0000 16.6721 10.0760 -14.4203 -2.5338 7.1250 -0.0000 -0.0000 32.8965 -41.8593 2.9046
3.6546 16.3395 -13.9939 -354.0040 -27.9758 364.4040 0.0000 0.0000 0.0000 -21.6489 20.1378 -13.9570 5.9110 14.3415 44.6233 -0.1776 -7.7711 0.4858 0.2407 -3.1572 -8.7168 0.0000 0.0000 0.0000 7.5507 11.7349 -38.3258 -3.9928 -12.1508 36.2674 -0.8864 -9.5784 -23.6977 -0.0617 1.6029 -4.4095 4.1868 -3.0071 18.4780 3.0717 -3.1043 5.6575 1.5740 -1.5791 -4.2807 6.0108 0.8462 11.6585 -7.4083 1.2810 -9.1142 -3.3744 0.8857 -4.5432 -0.0000 0.0000 0.0000 -86.3695 12.2491 29.3618 146.9992 -43.3306 -106.5774 -0.0000 0.0000 -4.1031 -1.7153 34.6528 -0.9755 -7.1250 0.0000 -0.0000 -39.7965 59.9648 -16.0320 -0.0000 0.0000 0.0000 80.9717 -3.2118 37.9059 -140.8452 47.5611 -102.1871 0.0000 0.0000 16.5489 10.0452 -14.4554 -2.5319 7.1250 -0.0000 -0.0000 32.8884 -41.8928 2.8724
3.5627 16.3496 -13.9248 -354.1290 -27.9037 364.5210 0.0000 0.0000 0.0000 -21.0806 19.9554 -15.3087 6.6036 14.9888 47.3585 -0.1621 -7.4301 0.4525 0.2077 -2.9346 -8.0968 0.0000 0.0000 0.0000 7.9219 11.6113 -38.1335 -4.0279 -12.1974 36.4340 -0.8239 -9.6716 -23.2409 -0.0471 1.4005 -3.8514 4.2773 -3.0221 18.6935 3.1328 -3.0889 5.6479 1.5972 -1.5727 -4.4046 6.0078 0.8318 11.6226 -7.3785 1.2623 -9.1227 -3.3630 0.8742 -4.5414 -0.0000 0.0000 0.0000 -86.2568 12.0242 29.4149 147.1134 -43.2427 -106.6557 -0.0000 0.0000 -4.2137 -1.5492 34.5776 -0.8793 -7.1250 0.0000 -0.0000 -39.5571 59.9458 -15.8981 -0.0000 0.0000 0.0000 80.8663 -3.1889 37.9057 -140.8804 47.5396 -102.2130 0.0000 0.0000 16.4359 10.0206 -14.4877 -2.5311 7.1250 -0.0000 -0.0000 32.8838 -41.9232 2.8435
